PathFileType	4	(X/Y/Z)	OpenSim_Sub03_CSBaseline_Gyro.trc
DataRate	CameraRate	NumFrames	NumMarkers	Units	OrigDataRate	OrigDataStartFrame	OrigNumFrames
100	100	41	8	m	100	2323	9288
Frame#	Time	torso_imu_offset_imu	pelvis_imu_offset_imu	tibia_r_imu_offset_imu	femur_r_imu_offset_imu	tibia_l_imu_offset_imu	femur_l_imu_offset_imu	toes_r_imu_offset_imu	toes_l_imu_offset_imu
				X1	Y1	Z1	X2	Y2	Z2	X3	Y3	Z3	X4	Y4	Z4	X5	Y5	Z5	X6	Y6	Z6	X7	Y7	Z7	X8		Y8	Z8	

2323	23.22000000	-0.02207789	0.35013671	-0.09497563	0.12534817	-0.27929120	-0.52113934	-1.08186874	-0.34549183	-1.99127329	0.03852086	0.78333061	1.14074713	-0.99677174	-0.46296599	1.54504686	0.94264503	0.25743154	0.51607339	0.82996771	-3.90928786	-2.26420891	-0.35151012	0.01333690	0.06121991
2324	23.23000000	-0.03095996	0.36389631	-0.09785805	0.19984674	-0.25306790	-0.53889876	-1.09178871	-0.39404165	-2.07572224	0.01898840	0.78638331	1.34614490	-0.18863355	-0.50706268	1.38206430	0.76109441	0.09175467	0.36189167	1.22143766	-4.45140320	-2.61575931	-0.03356596	0.05145227	-0.09439835
2325	23.24000000	-0.03814184	0.37709892	-0.10770970	0.22720965	-0.20691573	-0.54894489	-1.08334018	-0.48465601	-2.12875364	0.06467991	0.82094536	1.59920672	0.01570906	-0.13366124	1.37284948	0.45425915	-0.35187033	0.36116740	1.43651172	-4.76987645	-2.89229164	0.10366451	0.02371313	-0.14380081
2326	23.25000000	-0.05630179	0.37424826	-0.11106469	0.16186773	-0.14563801	-0.52490683	-1.08678093	-0.60096915	-2.17430800	0.01395917	0.85611944	1.84076624	0.40858179	-0.13193769	1.35653772	0.11487763	-0.63929482	0.51319209	1.20028901	-4.93884730	-3.03758895	0.11731421	0.01094399	-0.12499123
2327	23.26000000	-0.07637053	0.35763159	-0.10030123	0.01939496	-0.09760374	-0.49271560	-1.06709593	-0.74523491	-2.19908582	-0.14405418	0.88898120	2.08445449	0.86417066	-0.34982119	1.15399623	-0.13104567	-0.60812487	0.69328269	1.05982894	-5.04188127	-3.20280227	0.05726412	0.01552914	-0.07271186
2328	23.27000000	-0.11242813	0.31688606	-0.09128592	-0.14625134	-0.04918896	-0.47207125	-1.01085795	-0.85394229	-2.22599515	-0.39822177	0.90291039	2.29820226	0.85633526	-0.26896431	1.03741259	-0.22426628	-0.41679278	0.82971306	0.99285549	-4.95107944	-3.31328311	-0.07565049	0.06068128	-0.00389822
2329	23.28000000	-0.16081285	0.25225264	-0.06098725	-0.27313273	0.00842298	-0.43948495	-0.81898448	-0.92169416	-2.21491838	-0.63503795	0.88042427	2.42157011	0.64382566	-0.32639296	1.06387824	-0.08038256	-0.19810600	0.90404452	0.95631535	-4.91620462	-3.39821503	-0.18106415	0.10883161	0.06778733
2330	23.29000000	-0.21459975	0.17141353	-0.02831206	-0.37277870	0.07975246	-0.40623528	-0.48536621	-0.96561396	-2.13103697	-0.77856585	0.76083047	2.45293534	0.12523559	-0.42698049	1.03557488	0.20024419	-0.06988405	0.87479634	0.43470269	-4.78244829	-3.33864601	-0.24098959	0.14706169	0.12306803
2331	23.30000000	-0.27108424	0.08215020	0.00385784	-0.44955228	0.14206287	-0.36689088	-0.36431833	-0.99046703	-2.07771230	-0.81235155	0.58119970	2.44717349	-0.27229893	-0.35166987	0.98485550	0.38013440	-0.07992081	0.81782085	-0.13168761	-4.62221456	-3.17879693	-0.25383981	0.14058376	0.14165539
2332	23.31000000	-0.32188328	0.01092915	0.02789953	-0.48186120	0.18107348	-0.32547717	-0.42378499	-0.94879863	-2.01622898	-0.80752882	0.42333256	2.38567755	-0.34515672	-0.31430409	0.96791906	0.34429629	-0.21023812	0.79020901	-0.72266049	-4.51394914	-2.99832509	-0.25146065	0.11919542	0.15408779
2333	23.32000000	-0.36408456	-0.05045055	0.03771451	-0.45229388	0.18502818	-0.27175871	-0.53498019	-0.87307182	-1.84690998	-0.75790428	0.31591196	2.23618368	-0.31964673	-0.31244783	0.93064850	0.16122722	-0.36047676	0.76187269	-0.64244099	-3.77998124	-2.88901669	-0.24740126	0.07549859	0.16996378
2334	23.33000000	-0.40466006	-0.10532398	0.03934014	-0.39304367	0.15563568	-0.20372303	-0.77039277	-0.85473538	-1.59191410	-0.69249198	0.23939331	2.07676444	-0.20518360	-0.22155600	0.89733681	-0.05251889	-0.43399035	0.70059107	-1.13398772	-2.35048412	-2.19942084	-0.22588920	0.01828204	0.19085630
2335	23.34000000	-0.45152307	-0.14849442	0.03693280	-0.33243404	0.09922522	-0.11691507	-1.02387559	-0.75571769	-1.40333721	-0.56655858	0.17054656	2.05730159	-0.09077533	-0.21943937	0.88538561	-0.28041624	-0.42452629	0.63592513	-2.08187003	-0.10970821	-0.99102653	-0.25122276	-0.02899131	0.22808539
2336	23.35000000	-0.48787400	-0.17130122	0.03261281	-0.26440080	0.01268126	-0.02898499	-1.17630609	-0.49333435	-1.27109307	-0.35363181	0.11102109	1.95000564	-0.17034503	-0.33511196	0.86927904	-0.48073105	-0.38835037	0.59398535	-1.33965071	1.18062272	-0.28038214	-0.26081287	-0.05586410	0.23668540
2337	23.36000000	-0.51962302	-0.20004113	0.03372311	-0.18951944	-0.07619015	0.04804764	-1.45259526	-0.51997948	-1.03219559	-0.15624602	0.04528387	1.76496343	-0.16577162	-0.25277868	0.85389896	-0.50345905	-0.36543245	0.57045232	-0.49880529	1.11786005	0.19685151	-0.27420003	-0.05125633	0.24239431
2338	23.37000000	-0.56260862	-0.19988767	0.02207820	-0.14678736	-0.14060685	0.14504025	-1.88326343	-0.54230439	-0.57687023	0.01935012	-0.00974326	1.69988124	-0.19816882	-0.25058050	0.87453013	-0.35855598	-0.35623369	0.59071514	0.20967677	0.89534740	0.56974958	-0.28251300	-0.03664008	0.26087745
2339	23.38000000	-0.61986196	-0.16529348	0.01135962	-0.13649648	-0.15754291	0.25146224	-1.79417152	-0.47294537	-0.10309527	0.19083404	-0.06743234	1.71450320	-0.22471107	-0.26620033	0.86141891	-0.17546295	-0.34988628	0.61789396	-0.17019752	0.62339878	1.09647199	-0.28064011	-0.04666660	0.25994098
2340	23.39000000	-0.66785456	-0.11713773	0.01648992	-0.15125054	-0.14195571	0.32294061	-0.76812058	-0.37280929	0.26681158	0.38723686	-0.12179576	1.73018711	-0.10390408	-0.18425723	0.82846438	0.02186675	-0.33764058	0.63135382	-0.61812526	0.75333167	1.65619089	-0.26609623	-0.04470386	0.25709699
2341	23.40000000	-0.69184797	-0.06613183	0.03520708	-0.16093080	-0.11860635	0.36841522	0.58166858	-0.13638546	0.44471217	0.55413036	-0.18337796	1.65616516	-0.03353841	-0.21433084	0.79905732	0.21566257	-0.32146397	0.64631829	-0.74792823	1.01203880	2.11451923	-0.27426504	-0.06000831	0.26787990
2342	23.41000000	-0.68478608	-0.00479376	0.05047288	-0.16562546	-0.08700194	0.37571444	1.66126527	0.02693510	0.55154605	0.72822577	-0.22089354	1.55575997	-0.00425001	-0.20977234	0.73571385	0.32650795	-0.29735217	0.65904364	-0.50007339	1.40223574	2.44275181	-0.28084327	-0.06232893	0.27143347
2343	23.42000000	-0.66576917	0.04699921	0.04672948	-0.16126854	-0.03155910	0.34977618	2.10894567	0.12216403	0.81564047	0.92353243	-0.18321562	1.48804901	0.05852217	-0.17125968	0.72005653	0.32197943	-0.27272248	0.67187717	-0.13529150	1.85805198	2.69372044	-0.24413023	-0.06905093	0.25643133
2344	23.43000000	-0.64937010	0.09324594	0.03413188	-0.15549214	0.03953103	0.30027165	2.01899324	0.20146631	1.20143486	1.10805433	-0.08729872	1.42880691	0.11022726	-0.22536481	0.74342251	0.24793109	-0.24606320	0.68983105	0.02087022	2.19251002	2.87671580	-0.19945519	-0.06273892	0.22923166
2345	23.44000000	-0.61934839	0.12447516	0.03165841	-0.15797756	0.11383758	0.25589988	1.74099922	0.15352034	1.52431958	1.27288542	0.00289392	1.44583871	0.14553551	-0.24126830	0.74187745	0.18492849	-0.22270033	0.70378309	-0.11399058	2.55190037	3.00165342	-0.18203190	-0.09780772	0.21819807
2346	23.45000000	-0.59677572	0.13599510	0.02230663	-0.14926960	0.17853712	0.23248860	1.45658070	0.14776095	1.86785457	1.34761742	0.03637000	1.38657239	0.13202301	-0.17627535	0.71404241	0.13320251	-0.19632331	0.72374827	-0.46956582	2.90609239	3.01422401	-0.18334588	-0.13824012	0.21613986
2347	23.46000000	-0.57254353	0.13297682	0.01762186	-0.13386363	0.22605169	0.19554606	1.24587772	0.30164905	2.12720797	1.33711094	0.00085835	1.30885745	0.08903801	-0.14906294	0.70541721	0.09348504	-0.16749309	0.72603997	-0.84024969	3.15717919	2.84939066	-0.16336060	-0.16627456	0.20114690
2348	23.47000000	-0.55133252	0.11040484	0.02085193	-0.11140391	0.24399758	0.17120639	0.93133571	0.41045040	2.34156918	1.30976548	-0.04767924	1.25234005	0.08491431	-0.11391936	0.71956807	0.10661652	-0.13811007	0.69945932	-1.09205718	3.32991748	2.53571101	-0.14358513	-0.17206152	0.20358144
2349	23.48000000	-0.53019070	0.06661706	0.03089447	-0.09070847	0.22565452	0.18822603	0.57667993	0.45649632	2.57781980	1.30878894	-0.06289042	1.11614714	0.06496325	-0.09507184	0.71361800	0.14352763	-0.12755940	0.67218063	-1.20703673	3.52385788	2.15592460	-0.14453832	-0.19517953	0.20673397
2350	23.49000000	-0.51929993	0.02103661	0.04387089	-0.09903541	0.19948047	0.19241471	0.27653315	0.53562457	2.86568654	1.34321840	-0.07743575	0.99843579	0.03693538	-0.09882908	0.69603953	0.13179903	-0.13575154	0.65984106	-1.26907315	3.74692700	1.79217219	-0.14774152	-0.21476696	0.21026142
2351	23.50000000	-0.51845302	-0.01646485	0.03451829	-0.10967757	0.19724447	0.21003058	-0.06497657	0.60110219	3.09448848	1.34569811	-0.04416465	0.98013958	0.09212659	-0.09399678	0.68813038	0.07093050	-0.15067561	0.65970162	-1.37282569	4.01379939	1.50559395	-0.12953381	-0.21284277	0.21614780
2352	23.51000000	-0.49113666	-0.06361754	0.03071396	-0.10565423	0.20422688	0.22158909	-0.40326365	0.64460828	3.24363482	1.27640338	-0.00452407	0.89835773	0.03765382	-0.07430773	0.71005765	0.00726348	-0.14448255	0.66368150	-1.51880540	4.24492982	1.30378115	-0.12485221	-0.21322373	0.21108721
2353	23.52000000	-0.47607606	-0.08592284	0.02960003	-0.09153193	0.19942221	0.23196277	-0.61483074	0.68899469	3.41009485	1.11818793	-0.01509916	0.74214625	0.02528383	-0.06881400	0.71022744	-0.01430870	-0.12176080	0.63734652	-1.61907689	4.35183867	1.16930213	-0.11598792	-0.21741368	0.20505238
2354	23.53000000	-0.45351649	-0.11022592	0.04477084	-0.08447742	0.19531653	0.21468750	-0.83753785	0.70748186	3.56969888	0.88179759	-0.04437968	0.60804666	0.08686471	-0.03978570	0.68269460	-0.02617186	-0.10988704	0.63032746	-1.63120449	4.39127930	1.10540634	-0.11342288	-0.23104384	0.21188490
2355	23.54000000	-0.42051312	-0.13936713	0.04207467	-0.06575373	0.20262869	0.20055847	-0.90986988	0.71149454	3.74043942	0.60069326	-0.09101072	0.46682439	0.12460484	-0.03897767	0.68973012	-0.04478468	-0.09671670	0.62956218	-1.57823651	4.42227418	1.13958440	-0.09920745	-0.23821028	0.22167326
2356	23.55000000	-0.39783596	-0.15430790	0.05274294	-0.03891183	0.21159547	0.18770175	-0.79076310	0.74092072	3.90877318	0.30054629	-0.15145092	0.35091653	0.12949136	-0.05859609	0.71275794	-0.02595074	-0.07804636	0.61013011	-1.46796214	4.42110256	1.29830117	-0.10559170	-0.26051290	0.23341172
2357	23.56000000	-0.36410157	-0.16360189	0.05784844	-0.02078550	0.21587577	0.16589407	-0.49825066	0.77236926	4.06242994	0.00112639	-0.21927078	0.21853085	0.17437335	-0.02939657	0.70453115	0.05304467	-0.06097327	0.59137010	-1.30150705	4.33532173	1.60409114	-0.12016383	-0.27279413	0.23845776
2358	23.57000000	-0.31970737	-0.16969728	0.06042995	-0.00648919	0.20456719	0.14780437	-0.06245731	0.81209591	4.19170688	-0.27850438	-0.28965942	0.09183240	0.22924467	-0.00938964	0.70033557	0.17302921	-0.05978257	0.56061495	-1.05022946	4.18570002	2.03547584	-0.12358979	-0.29968533	0.25392134
2359	23.58000000	-0.26968499	-0.16364926	0.06872828	0.02118326	0.19072287	0.13156019	0.50709131	0.88172845	4.28064536	-0.50305674	-0.34295451	-0.02835043	0.24880750	0.00963163	0.70687531	0.27885114	-0.05319574	0.54567644	-0.69493399	4.02182062	2.56174075	-0.12307084	-0.31996309	0.26912239
2360	23.59000000	-0.22675443	-0.15878268	0.06985742	0.05548991	0.17361775	0.11256280	1.10782067	0.97332465	4.30126424	-0.65038987	-0.37521819	-0.14927277	0.23509217	0.01873760	0.72144059	0.33080849	-0.05243822	0.52809225	-0.30615165	3.80565158	3.10620054	-0.13161677	-0.35379276	0.28641167
2361	23.60000000	-0.18670858	-0.15026742	0.06057744	0.09703814	0.16624198	0.07825251	1.63049424	1.10064561	4.24956492	-0.65962109	-0.34393685	-0.30634560	0.27479060	0.02128264	0.71093430	0.34418546	-0.04927602	0.51146001	0.02827951	3.53965828	3.57273856	-0.12841769	-0.38259100	0.30003823
2362	23.61000000	-0.13319116	-0.14127920	0.04797558	0.14288479	0.14951951	0.04659914	1.96678598	1.23931393	4.14662920	-0.50955512	-0.26073599	-0.46384252	0.31916869	0.02936207	0.69695013	0.32963808	-0.04342197	0.51949330	0.28134356	3.24069538	3.90074751	-0.13684849	-0.43056463	0.31151325
2363	23.62000000	-0.09169861	-0.13336276	0.04510476	0.17329792	0.11934336	0.01245581	2.15743064	1.39354221	4.04693629	-0.26998790	-0.22792632	-0.58803750	0.33792578	0.03798156	0.69393440	0.28897497	-0.04101734	0.54568078	0.49698178	2.94238644	4.04647987	-0.14652101	-0.48031280	0.32319571
